<svg width="1040" height="1040" viewBox="0 0 1040 1040" fill="none" xmlns="http://www.w3.org/2000/svg">
<path fill-rule="evenodd" clip-rule="evenodd" d="M98.3529 8H941.647C991.548 8 1032 48.4524 1032 98.3529V941.647C1032 991.548 991.548 1032 941.647 1032H98.353C48.4524 1032 8 991.548 8 941.647V98.353C8 48.4524 48.4524 8 98.3529 8ZM233.883 98.402H845.271C895.171 98.402 935.624 138.854 935.624 188.755V782.073C935.624 831.973 895.171 872.425 845.271 872.425H233.883C183.982 872.425 143.53 831.973 143.53 782.073V188.755C143.53 138.854 183.982 98.402 233.883 98.402Z" fill="#D9D9D9"/>
<path opacity="0.6" d="M154.824 837.696L11.0127 912.99C11.0127 912.99 -2.11416 965.598 38.1183 1003.34C78.3507 1041.09 107.389 1034.97 107.389 1034.97L190.965 868.567C190.965 868.567 176.659 859.532 167.624 853.508C158.589 847.485 154.824 837.696 154.824 837.696Z" fill="#F4F4F4"/>
<path opacity="0.6" d="M904 852.806C909.271 847.535 917.553 838.5 917.553 838.5L1032 912.288C1035.01 925.054 1035.76 977.794 1007.91 1000.38C999.048 1008.69 974.776 1029.75 963.334 1029.75L885.93 865.606C885.93 865.606 898.73 858.077 904 852.806Z" fill="#F4F4F4"/>
<path opacity="0.84" d="M14.1063 60.7271C18.2351 52.5715 24.4122 43.8345 33.6021 35.2712C42.1571 27.2995 56.6354 15.0467 64.471 11.0329C67.483 11.0329 135.247 85.5737 168.377 124.727C162.353 127.738 149.553 150.327 146.542 155.598C105.13 125.48 14.1067 62.9859 14.1063 60.7271Z" fill="url(#paint0_linear_308_2)"/>
<path opacity="0.84" d="M1027.4 64.6947C1028.99 63.7567 1018.45 44.9331 1013.18 38.9096C1007.91 32.8861 986.071 9.54561 977.035 14.0625C974.388 14.0625 921.844 67.6185 885.929 108.18C890.447 113.067 913.788 134.311 919.812 139.804C965 107.645 1027.4 66.6532 1027.4 64.6947Z" fill="url(#paint1_linear_308_2)"/>
<path d="M941.647 8H98.3529C48.4524 8 8 48.4524 8 98.353V941.647C8 991.548 48.4524 1032 98.353 1032H941.647C991.548 1032 1032 991.548 1032 941.647V98.3529C1032 48.4524 991.548 8 941.647 8Z" stroke="#9E9E9E" stroke-width="15.0588"/>
<path d="M911.529 38.0977H128.47C78.5696 38.0977 38.1172 78.55 38.1172 128.451V911.51C38.1172 961.41 78.5695 1001.86 128.47 1001.86H911.529C961.43 1001.86 1001.88 961.41 1001.88 911.51V128.451C1001.88 78.55 961.43 38.0977 911.529 38.0977Z" stroke="#EEEEEE" stroke-width="12.0471"/>
<path d="M845.271 98.4023H233.883C183.982 98.4023 143.53 138.855 143.53 188.755V782.073C143.53 831.973 183.982 872.426 233.883 872.426H845.271C895.171 872.426 935.624 831.973 935.624 782.073V188.755C935.624 138.855 895.171 98.4023 845.271 98.4023Z" fill="url(#paint2_linear_308_2)"/>
<path d="M845.271 98.4023H233.883C183.982 98.4023 143.53 138.855 143.53 188.755V782.073C143.53 831.973 183.982 872.426 233.883 872.426H845.271C895.171 872.426 935.624 831.973 935.624 782.073V188.755C935.624 138.855 895.171 98.4023 845.271 98.4023Z" stroke="#FAFAFA" stroke-width="15.0588"/>
<path fill-rule="evenodd" clip-rule="evenodd" d="M210.815 329.228C210.819 349.757 206.962 581.972 205.818 630.036L205.27 653.03H239.704H274.138L274.162 599.126L274.186 545.222L302.66 515.82C321.499 496.366 331.636 486.927 332.617 487.925C333.433 488.754 340.512 500.968 348.347 515.066C356.183 529.164 377.046 565.972 394.713 596.864L426.833 653.03H471.051H515.27L498.217 627.021C488.838 612.716 468.607 581.334 453.259 557.284C437.909 533.235 414.737 497.129 401.764 477.049C388.792 456.97 378.177 439.847 378.177 439.001C378.177 437.529 399.205 415.181 469.67 341.767L501.605 308.495L458.112 308.096L414.621 307.696L406.431 316.389C401.927 321.17 393.218 330.65 387.078 337.456C357.115 370.675 292.173 441.656 281.177 453.206L275.399 459.277L276.325 383.509L277.25 307.742H244.03H210.81L210.815 329.228Z" fill="#4F4F4F"/>
<path fill-rule="evenodd" clip-rule="evenodd" d="M654.06 446.078C641.885 448.039 625.822 456.544 614.226 467.169L604.107 476.441V462.684V448.926H580.838H557.567L556.63 477.308C556.116 492.919 555.337 529.873 554.9 559.429C554.464 588.984 553.707 622.193 553.218 633.223L552.33 653.28H578.976H605.621L605.713 641.549C606.07 596.103 608.645 525.584 610.203 518.558C612.713 507.239 616.394 500.438 623.478 494.038C630.738 487.481 638.492 484.671 649.531 484.602C660.209 484.535 667.192 488.486 672.225 497.443L676.01 504.177L676.467 578.729L676.924 653.28H703.249H729.575L730.103 586.297C730.715 508.829 730.795 508.284 743.298 495.779C758.84 480.239 782.722 480.684 792.069 496.689C796.514 504.298 797.605 519.227 798.73 587.811L799.805 653.28H826.068H852.33L851.479 611.274C849.806 528.671 848.197 494.047 845.65 485.775C840.261 468.288 825.939 454.256 807.705 448.597C794.095 444.374 774.913 444.151 763.049 448.08C752.37 451.617 735.917 462.454 728.886 470.584L723.399 476.93L720.896 473.146C711.542 458.995 698.51 450.167 681.731 446.611C670.335 444.197 666.24 444.118 654.06 446.078Z" fill="#4F4F4F"/>
<defs>
<linearGradient id="paint0_linear_308_2" x1="126.212" y1="74.28" x2="84.0475" y2="120.962" gradientUnits="userSpaceOnUse">
<stop offset="0.15" stop-color="#D9D9D9"/>
<stop offset="0.3" stop-color="#F4F4F4"/>
<stop offset="0.6" stop-color="#F4F4F4"/>
<stop offset="0.85" stop-color="#D9D9D9"/>
</linearGradient>
<linearGradient id="paint1_linear_308_2" x1="917.553" y1="63.7567" x2="965.741" y2="119.474" gradientUnits="userSpaceOnUse">
<stop offset="0.15" stop-color="#D9D9D9"/>
<stop offset="0.3" stop-color="#F4F4F4"/>
<stop offset="0.6" stop-color="#F4F4F4"/>
<stop offset="0.85" stop-color="#D9D9D9"/>
</linearGradient>
<linearGradient id="paint2_linear_308_2" x1="897.486" y1="127.07" x2="180.922" y2="857.43" gradientUnits="userSpaceOnUse">
<stop stop-color="#D3CFCF"/>
<stop offset="1" stop-color="#F5F5F5"/>
</linearGradient>
</defs>
</svg>
